<?xml version="1.0" encoding="UTF-8" standalone="no"?>
<!-- Created with Inkscape (http://www.inkscape.org/) -->

<svg
   xmlns:dc="http://purl.org/dc/elements/1.1/"
   xmlns:cc="http://creativecommons.org/ns#"
   xmlns:rdf="http://www.w3.org/1999/02/22-rdf-syntax-ns#"
   xmlns:svg="http://www.w3.org/2000/svg"
   xmlns="http://www.w3.org/2000/svg"
   xmlns:xlink="http://www.w3.org/1999/xlink"
   xmlns:sodipodi="http://sodipodi.sourceforge.net/DTD/sodipodi-0.dtd"
   xmlns:inkscape="http://www.inkscape.org/namespaces/inkscape"
   width="512"
   height="512"
   id="svg2"
   version="1.1"
   inkscape:version="0.48.2 r9819"
   sodipodi:docname="Vector_Nikki_BackUpOnly.svg"
   inkscape:export-filename="/media/disk/Users/cptfuro/Documents/MeineProjekte/Joyride/Artwork/Application Icon/AppIcon16.png"
   inkscape:export-xdpi="2.8125"
   inkscape:export-ydpi="2.8125">
  <defs
     id="defs4">
    <linearGradient
       id="linearGradient4086">
      <stop
         style="stop-color:#66d5fe;stop-opacity:1;"
         offset="0"
         id="stop4088" />
      <stop
         style="stop-color:#41548e;stop-opacity:1;"
         offset="1"
         id="stop4090" />
    </linearGradient>
    <radialGradient
       inkscape:collect="always"
       xlink:href="#linearGradient4086"
       id="radialGradient4092"
       cx="256"
       cy="256"
       fx="256"
       fy="256"
       r="256"
       gradientUnits="userSpaceOnUse"
       gradientTransform="matrix(1,-0.99999998,0.99999996,1,-256.00001,255.99999)" />
    <filter
       id="filter4098"
       inkscape:label="Blur content"
       inkscape:menu="Blurs"
       inkscape:menu-tooltip="Blur the contents of objects, preserving the outline"
       color-interpolation-filters="sRGB">
      <feColorMatrix
         id="feColorMatrix4100"
         values="1 0 0 0 0 0 1 0 0 0 0 0 1 0 0 0 0 0 1 0 "
         result="result7" />
      <feGaussianBlur
         id="feGaussianBlur4102"
         result="result6"
         stdDeviation="64" />
      <feComposite
         id="feComposite4104"
         in2="result7"
         operator="atop"
         in="result6"
         result="result91" />
      <feComposite
         id="feComposite4106"
         in2="result91"
         operator="in" />
    </filter>
    <radialGradient
       inkscape:collect="always"
       xlink:href="#linearGradient4086-8"
       id="radialGradient4092-3"
       cx="256"
       cy="256"
       fx="256"
       fy="256"
       r="256"
       gradientUnits="userSpaceOnUse"
       gradientTransform="matrix(1,-0.99999998,0.99999996,1,-256.00001,255.99999)" />
    <linearGradient
       id="linearGradient4086-8">
      <stop
         style="stop-color:#66d5fe;stop-opacity:1;"
         offset="0"
         id="stop4088-4" />
      <stop
         style="stop-color:#41548e;stop-opacity:1;"
         offset="1"
         id="stop4090-3" />
    </linearGradient>
    <radialGradient
       inkscape:collect="always"
       xlink:href="#linearGradient4086-2"
       id="radialGradient4092-0"
       cx="256"
       cy="256"
       fx="256"
       fy="256"
       r="256"
       gradientUnits="userSpaceOnUse"
       gradientTransform="matrix(1,-0.99999998,0.99999996,1,-256.00001,255.99999)" />
    <linearGradient
       id="linearGradient4086-2">
      <stop
         style="stop-color:#66d5fe;stop-opacity:1;"
         offset="0"
         id="stop4088-2" />
      <stop
         style="stop-color:#41548e;stop-opacity:1;"
         offset="1"
         id="stop4090-4" />
    </linearGradient>
    <radialGradient
       inkscape:collect="always"
       xlink:href="#linearGradient4086"
       id="radialGradient3116"
       gradientUnits="userSpaceOnUse"
       gradientTransform="matrix(1,-0.99999998,0.99999996,1,-256.00001,255.99999)"
       cx="256"
       cy="256"
       fx="256"
       fy="256"
       r="256" />
  </defs>
  <sodipodi:namedview
     id="base"
     pagecolor="#ffffff"
     bordercolor="#666666"
     borderopacity="1.0"
     inkscape:pageopacity="0.0"
     inkscape:pageshadow="2"
     inkscape:zoom="0.70710678"
     inkscape:cx="181.39335"
     inkscape:cy="257.03475"
     inkscape:document-units="px"
     inkscape:current-layer="layer17"
     showgrid="false"
     showguides="true"
     inkscape:snap-bbox="true"
     inkscape:window-width="1106"
     inkscape:window-height="699"
     inkscape:window-x="0"
     inkscape:window-y="19"
     inkscape:window-maximized="0"
     inkscape:snap-page="true"
     inkscape:guide-bbox="true">
    <inkscape:grid
       type="xygrid"
       id="grid2985"
       empspacing="4"
       visible="true"
       enabled="true"
       snapvisiblegridlinesonly="true" />
  </sodipodi:namedview>
  <metadata
     id="metadata7">
    <rdf:RDF>
      <cc:Work
         rdf:about="">
        <dc:format>image/svg+xml</dc:format>
        <dc:type
           rdf:resource="http://purl.org/dc/dcmitype/StillImage" />
        <dc:title></dc:title>
      </cc:Work>
    </rdf:RDF>
  </metadata>
  <g
     inkscape:groupmode="layer"
     id="layer17"
     inkscape:label="Background"
     style="display:inline">
    <path
       style="fill:url(#radialGradient3116);fill-opacity:1;stroke:none"
       d="M 30 0 C 13.38 0 0 14.272 0 32 L 0 480 C 0 497.728 13.38 512 30 512 L 482 512 C 498.62 512 512 497.728 512 480 L 512 32 C 512 14.272 498.62 0 482 0 L 30 0 z "
       id="rect4082" />
  </g>
  <g
     inkscape:groupmode="layer"
     id="layer2"
     inkscape:label="Nikki Black"
     style="display:inline" />
  <g
     inkscape:groupmode="layer"
     id="layer4"
     inkscape:label="Grey RGB20"
     style="display:inline" />
  <g
     inkscape:groupmode="layer"
     id="layer3"
     inkscape:label="Grey RGB40"
     style="display:inline" />
  <g
     inkscape:groupmode="layer"
     id="layer11"
     inkscape:label="Grey RGB70" />
  <g
     inkscape:groupmode="layer"
     id="layer6"
     inkscape:label="Skin"
     style="display:inline" />
  <g
     inkscape:groupmode="layer"
     id="layer8"
     inkscape:label="Skin Dark" />
  <g
     inkscape:groupmode="layer"
     id="layer5"
     inkscape:label="White"
     style="display:inline" />
  <g
     inkscape:groupmode="layer"
     id="layer14"
     inkscape:label="Light Grey" />
  <g
     inkscape:groupmode="layer"
     id="layer13"
     inkscape:label="Blue Light" />
  <g
     inkscape:groupmode="layer"
     id="layer12"
     inkscape:label="Blue Dark" />
  <g
     inkscape:groupmode="layer"
     id="layer7"
     inkscape:label="Eyebrows"
     style="display:inline" />
  <g
     inkscape:groupmode="layer"
     id="layer9"
     inkscape:label="Pink Dark" />
  <g
     inkscape:groupmode="layer"
     id="layer10"
     inkscape:label="Pink Light" />
  <g
     inkscape:groupmode="layer"
     id="layer15"
     inkscape:label="Belt Dark" />
  <g
     inkscape:groupmode="layer"
     id="layer16"
     inkscape:label="Belt Light"
     style="display:inline" />
  <g
     inkscape:label="Template"
     inkscape:groupmode="layer"
     id="layer1"
     transform="translate(0,-540.36218)"
     style="display:inline" />
  <g
     inkscape:groupmode="layer"
     id="layer19"
     inkscape:label="Nikki Group"
     style="display:inline">
    <path
       style="fill:#000000;fill-opacity:1;stroke:none;display:inline"
       d="M 409.21875 4.90625 L 340.75 27.15625 L 355.59375 72.78125 L 264.28125 102.46875 L 256.875 79.625 L 234.03125 87.0625 L 226.625 64.21875 L 158.15625 86.46875 L 254.5625 383.21875 L 277.375 375.78125 L 284.8125 398.625 L 353.28125 376.375 L 360.6875 399.1875 L 337.875 406.59375 L 360.125 475.09375 L 337.3125 482.5 L 344.71875 505.3125 L 367.53125 497.90625 L 372.125 512 L 482 512 C 498.62 512 512 497.728 512 480 L 512 476.5 L 511.90625 476.21875 L 512 463.5625 L 512 398.90625 L 497.65625 354.6875 L 474.8125 362.09375 L 467.40625 339.28125 L 512 324.78125 L 512 88.1875 L 507.375 73.9375 L 484.53125 81.375 L 469.71875 35.71875 L 446.875 43.125 L 439.46875 20.3125 L 416.65625 27.71875 L 409.21875 4.90625 z "
       id="path3855-1" />
    <path
       style="fill:#141414;fill-opacity:1;stroke:none;display:inline"
       d="M 458.84375 468.25 L 413.1875 483.0625 L 422.59375 512 L 473.0625 512 L 458.84375 468.25 z "
       id="path3876-9" />
    <path
       style="fill:#141414;fill-opacity:1;stroke:none;display:inline"
       d="m 360.69857,399.18956 114.12679,-37.08204 22.24922,68.47607 -114.12678,37.08204 z"
       id="path3882-4"
       inkscape:connector-curvature="0"
       sodipodi:nodetypes="ccccc" />
    <path
       style="fill:#141414;fill-opacity:1;stroke:none;display:inline"
       d="m 338.44935,330.71349 68.47607,-22.24922 22.24922,68.47607 -45.65071,14.83281 -7.41641,-22.82535 -22.82535,7.4164 z"
       id="path3884-2"
       inkscape:connector-curvature="0" />
    <path
       style="fill:#282828;fill-opacity:1;stroke:none;display:inline"
       d="M 454.3125 65.96875 L 203.21875 147.53125 L 277.375 375.78125 L 512 299.5625 L 512 165.875 L 484.53125 81.375 L 461.71875 88.78125 L 454.3125 65.96875 z "
       id="path3857-4" />
    <path
       style="fill:#282828;fill-opacity:1;stroke:none;display:inline"
       d="m 376.10752,368.9478 29.66563,91.30142 45.65072,-14.83281 L 429.17464,376.94034 452,369.52393 444.58359,346.69857 z"
       id="path3859-1"
       inkscape:connector-curvature="0" />
    <path
       style="fill:#282828;fill-opacity:1;stroke:none;display:inline"
       d="M 474.82536,362.10752 497.07458,430.58359 474.24923,438 452,369.52393 z"
       id="path3861-8"
       inkscape:connector-curvature="0" />
    <path
       style="fill:#282828;fill-opacity:1;stroke:none;display:inline"
       d="M 481.65625 460.8125 L 413.1875 483.0625 L 420.59375 505.90625 L 443.4375 498.46875 L 447.8125 512 L 482 512 C 487.446 512 492.54403 510.46555 496.9375 507.78125 L 481.65625 460.8125 z "
       id="path3867-3" />
    <rect
       style="fill:#464646;fill-opacity:1;stroke:none"
       id="rect4030-0"
       width="24"
       height="24"
       x="387.68835"
       y="203.11385"
       transform="matrix(0.95105652,-0.30901699,0.30901699,0.95105652,0,0)" />
    <path
       style="fill:#464646;fill-opacity:1;stroke:none"
       d="M 484.53125 81.375 L 461.71875 88.78125 L 512 243.5625 L 512 165.875 L 484.53125 81.375 z "
       id="rect4032-2" />
    <path
       style="fill:#464646;fill-opacity:1;stroke:none"
       d="M 512 249.09375 L 490.8125 255.96875 L 505.65625 301.625 L 512 299.5625 L 512 249.09375 z "
       id="rect4034-8" />
    <path
       style="fill:#f2b155;fill-opacity:1;stroke:none;display:inline"
       d="m 269.97328,352.96272 -29.66563,-91.30143 41.94251,-26.24549 91.30142,-29.66564 72.18428,-10.83654 29.66563,91.30142 z"
       id="path3896-1"
       inkscape:connector-curvature="0"
       sodipodi:nodetypes="ccccccc" />
    <rect
       style="fill:#cc913d;fill-opacity:1;stroke:none"
       id="rect3928-9"
       width="96"
       height="24"
       x="195.68842"
       y="299.11371"
       transform="matrix(0.95105652,-0.30901699,0.30901699,0.95105652,0,0)" />
    <rect
       style="fill:#cc913d;fill-opacity:1;stroke:none"
       id="rect3930-5"
       width="24"
       height="24"
       x="339.68835"
       y="323.11371"
       transform="matrix(0.95105652,-0.30901699,0.30901699,0.95105652,0,0)" />
    <path
       style="fill:#ffffff;fill-opacity:1;stroke:none;display:inline"
       d="m 360.12244,475.08204 22.82536,-7.41641 7.4164,22.82536 -22.82535,7.4164 z"
       id="path3887-7"
       inkscape:connector-curvature="0" />
    <path
       style="fill:#ffffff;fill-opacity:1;stroke:none;display:inline"
       d="m 474.24923,438 22.82535,-7.41641 7.41641,22.82536 -22.82535,7.4164 z"
       id="path3889-4"
       inkscape:connector-curvature="0" />
    <path
       style="fill:#ffffff;fill-opacity:1;stroke:none;display:inline"
       d="m 377.25979,217.16284 45.65071,-14.83281 22.24922,68.47607 -45.65071,14.83281 z"
       id="path3891-5"
       inkscape:connector-curvature="0" />
    <path
       style="fill:#ffffff;fill-opacity:1;stroke:none;display:inline"
       d="m 240.30765,261.66129 45.65071,-14.83282 22.24923,68.47607 -45.65072,14.83282 z"
       id="path3893-8"
       inkscape:connector-curvature="0" />
    <rect
       style="fill:#e0e0e0;fill-opacity:1;stroke:none"
       id="rect4071-7"
       width="24"
       height="24"
       x="147.68842"
       y="323.11371"
       transform="matrix(0.95105652,-0.30901699,0.30901699,0.95105652,0,0)" />
    <rect
       style="fill:#e0e0e0;fill-opacity:1;stroke:none"
       id="rect4073-1"
       width="24"
       height="24"
       x="291.68835"
       y="323.11371"
       transform="matrix(0.95105652,-0.30901699,0.30901699,0.95105652,0,0)" />
    <rect
       style="fill:#075287;fill-opacity:1;stroke:none"
       id="rect4060-1"
       width="24"
       height="72"
       x="171.68842"
       y="323.11371"
       transform="matrix(0.95105652,-0.30901699,0.30901699,0.95105652,0,0)" />
    <rect
       style="fill:#075287;fill-opacity:1;stroke:none"
       id="rect4062-9"
       width="24"
       height="72"
       x="315.68835"
       y="323.11371"
       transform="matrix(0.95105652,-0.30901699,0.30901699,0.95105652,0,0)" />
    <rect
       style="fill:#062f4b;fill-opacity:1;stroke:none"
       id="rect4039-8"
       width="24"
       height="48"
       x="171.68842"
       y="323.11371"
       transform="matrix(0.95105652,-0.30901699,0.30901699,0.95105652,0,0)" />
    <rect
       style="fill:#062f4b;fill-opacity:1;stroke:none"
       id="rect4039-3-8"
       width="24"
       height="48"
       x="315.68835"
       y="323.11371"
       transform="matrix(0.95105652,-0.30901699,0.30901699,0.95105652,0,0)" />
    <path
       style="fill:#000000;fill-opacity:1;stroke:none;display:inline"
       d="m 232.89125,238.83593 45.6507,-14.83281 14.83282,45.65071 -22.82536,7.41641 -7.4164,-22.82536 -22.82536,7.41641 z"
       id="path4064-5"
       inkscape:connector-curvature="0" />
    <path
       style="fill:#000000;fill-opacity:1;stroke:none;display:inline"
       d="m 369.84338,194.33748 68.47607,-22.24922 7.41641,22.82536 -22.82536,7.41641 7.41641,22.82535 -22.82536,7.41641 -7.41641,-22.82536 -22.82535,7.41641 z"
       id="path4068-4"
       inkscape:connector-curvature="0" />
    <path
       style="fill:#e55e81;fill-opacity:1;stroke:none"
       d="m 188.3928,101.88379 14.83281,45.65072 45.65071,-14.83282 -7.4164,-22.82536 -22.82536,7.41641 -7.4164,-22.825355 z"
       id="path3933-0"
       inkscape:connector-curvature="0" />
    <path
       style="fill:#e55e81;fill-opacity:1;stroke:none"
       d="M 370.99565,42.55253 385.82846,88.203243 431.47917,73.370427 424.06277,50.54507 401.23741,57.961478 393.821,35.136122 z"
       id="path3933-5-7"
       inkscape:connector-curvature="0" />
    <rect
       style="fill:#ff799c;fill-opacity:1;stroke:none"
       id="rect3973-7"
       width="24"
       height="24"
       x="147.68842"
       y="395.11368"
       transform="matrix(0.95105652,-0.30901699,0.30901699,0.95105652,0,0)" />
    <rect
       style="fill:#ff799c;fill-opacity:1;stroke:none"
       id="rect3973-1-4"
       width="24"
       height="24"
       x="339.68835"
       y="395.11368"
       transform="matrix(0.95105652,-0.30901699,0.30901699,0.95105652,0,0)" />
    <rect
       style="fill:#ff799c;fill-opacity:1;stroke:none"
       id="rect3973-1-8-9"
       width="24"
       height="24"
       x="339.68835"
       y="155.11385"
       transform="matrix(0.95105652,-0.30901699,0.30901699,0.95105652,0,0)" />
    <rect
       style="fill:#ff799c;fill-opacity:1;stroke:none"
       id="rect3973-1-8-4-3"
       width="24"
       height="24"
       x="147.68842"
       y="155.11385"
       transform="matrix(0.95105652,-0.30901699,0.30901699,0.95105652,0,0)" />
    <rect
       style="fill:#66421f;fill-opacity:1;stroke:none"
       id="rect4076-8"
       width="72"
       height="24"
       x="219.68842"
       y="563.11371"
       transform="matrix(0.95105652,-0.30901699,0.30901699,0.95105652,0,0)" />
    <rect
       style="fill:#b2702d;fill-opacity:1;stroke:none;display:inline"
       id="rect4079-9"
       width="24"
       height="24"
       x="243.68842"
       y="563.11371"
       transform="matrix(0.95105652,-0.30901699,0.30901699,0.95105652,0,0)" />
  </g>
</svg>
